# xmcd
#
# Track frame offsets: 
#        150
#        11070
#        21317
#        33427
#        37180
#        40502
#        44040
#
# Disc length: 729 seconds
#
# Revision: 0
# Processed by: cddbd v1.5.2PL0 Copyright (c) Steve Scherf et al.
# Submitted via: ExactAudioCopy v0.99pb3
#
DISCID=5802d707
DTITLE=James, Michael - Bradley The Brown Nosed Reindeer
DYEAR=1992
DGENRE=Christmas/Holiday
TTITLE0=Bradley The Brown Nosed Reindeer
TTITLE1=Merikristmus Dad
TTITLE2=The Family Tree
TTITLE3=Away In A Manger
TTITLE4=White Christmas
TTITLE5=Silent Night
TTITLE6=Bradley The Brown Nosed Reindeer (Instrumental)
EXTD=
EXTT0=
EXTT1=
EXTT2=
EXTT3=
EXTT4=
EXTT5=
EXTT6=
PLAYORDER=
